<?xml version="1.0" encoding="utf-8"?>
<!-- Generator: Adobe Illustrator 15.1.0, SVG Export Plug-In . SVG Version: 6.00 Build 0)  -->
<!DOCTYPE svg PUBLIC "-//W3C//DTD SVG 1.1//EN" "http://www.w3.org/Graphics/SVG/1.1/DTD/svg11.dtd">
<svg version="1.1" id="Layer_1" xmlns="http://www.w3.org/2000/svg" xmlns:xlink="http://www.w3.org/1999/xlink" x="0px" y="0px"
	 width="299.5px" height="48.5px" viewBox="0 0 299.5 48.5" enable-background="new 0 0 299.5 48.5" xml:space="preserve">
<g>
	<g>
		<g>
			<path fill="#FFFFFF" d="M3.552,46.601H0l3.729-5.825H3.552c2.808,0,4.87-1.105,6.303-2.61c2.413-2.527,2.436-6.768,2.436-6.803
				l0.093-0.268v-0.048V13.793c0-3.984,6.663-3.786,6.663-3.786v20.982c0,1.025-0.034,6.932-4.228,11.395
				C12.082,45.284,8.26,46.601,3.552,46.601z"/>
		</g>
		<g>
			<path fill="#FFFFFF" d="M9.53,32.423c0,0-0.035,5.172-6.803,3.797c-0.339-6.896-0.012-20.295-0.012-20.295
				C2.691,14.901,2.703,8.843,6.896,4.38C9.634,1.467,13.398,0,18.104,0h3.215l-3.715,6.792h0.5c-2.807,0-4.869,0.782-6.303,2.285
				c-2.411,2.528-2.306,6.605-2.306,6.64l0.035,0.105v0.047V32.423z"/>
		</g>
	</g>
	<path fill="#FFFFFF" d="M50,14.251v8.778c0,2.327-1.219,3.496-3.658,3.496h-8.765l2.895-2.966h5.7c0.517,0,0.775-0.271,0.775-0.838
		v-8.469L50,14.251L50,14.251z"/>
	<path fill="#FFFFFF" d="M64.919,21.342V18.08c0-0.579-0.258-0.875-0.787-0.875h-8.47c-0.529,0-0.787,0.296-0.787,0.875v3.262v0.16
		v2.216l-3.065,2.807v-8.776c0-2.328,1.218-3.497,3.644-3.497H64.6c2.253,0,3.373,1.169,3.373,3.497v8.776l-3.054-2.807v-0.124
		V21.342z"/>
	<path fill="#FFFFFF" d="M92.498,14.251v12.273l-3.054-3.521v-5.798h-0.16c-0.875,0-1.687,0.764-2.45,2.266l-2.008,4.259
		c-0.958,1.539-2.141,2.352-3.557,2.425l-0.259,0.024c-1.477,0.061-2.708-0.689-3.668-2.217l-2.007-4.382
		c-0.726-1.589-1.527-2.376-2.425-2.376h-0.16v6.512l-3.054,2.807V14.251h3.348c1.687,0,3.079,0.776,4.174,2.314
		c0.467,0.677,1.17,2.105,2.056,4.31c0.653,1.551,1.256,2.314,1.822,2.314c0.701,0,1.379-0.763,1.994-2.314
		c0.985-2.34,1.651-3.78,1.994-4.31c1.035-1.538,2.39-2.314,4.063-2.314H92.498z"/>
	<path fill="#FFFFFF" d="M93.986,23.558h13.553l2.906,2.966H93.986V23.558z M93.986,18.916h13.628v2.956H93.986V18.916z
		 M93.986,14.301h16.459l-2.906,2.953H93.986V14.301z"/>
	<path fill="#FFFFFF" d="M126.511,22.451v0.615c0,2.327-1.206,3.497-3.631,3.497h-12.656l3.632-2.955h8.826
		c0.518,0,0.777-0.282,0.777-0.849c0-0.566-0.259-0.851-0.777-0.851h-8.801c-2.438,0-3.657-1.156-3.657-3.483v-0.676
		c0-2.34,1.219-3.497,3.657-3.497h12.63l-2.894,2.955h-9.552c-0.53,0-0.787,0.296-0.787,0.849v0.062
		c0,0.554,0.257,0.837,0.787,0.837h8.802C125.305,18.954,126.511,20.124,126.511,22.451z"/>
	<path fill="#FFFFFF" d="M134.969,19.889h10.305l2.904,2.955h-10.279v3.681h-2.93V19.889z M134.969,14.301h16.027l-2.891,2.953
		h-13.136V14.301z"/>
	<polygon fill="#FFFFFF" points="151.811,14.251 154.863,14.251 154.863,23.558 167.789,23.558 167.789,26.524 151.811,26.524 	"/>
	<path fill="#FFFFFF" d="M169.574,26.524v-8.776c0-1.219,0.295-2.093,0.887-2.66c0.578-0.554,1.5-0.837,2.77-0.837h12.521v8.778
		c0,2.327-1.207,3.496-3.632,3.496L169.574,26.524L169.574,26.524z M182.71,22.72v-5.514h-9.296c-0.527,0-0.787,0.296-0.787,0.875
		v5.478h9.294C182.439,23.558,182.71,23.288,182.71,22.72z"/>
	<path fill="#FFFFFF" d="M187.598,14.312h12.544c2.425,0,3.632,1.17,3.632,3.51v1.329c0,2.302-1.095,3.46-3.274,3.46
		c-0.024,0.024,1.341,1.317,4.05,3.876h-1.096h-2.093h-1.106l-2.155-2.166c-0.603-0.604-1.231-1.021-1.86-1.28
		c-0.627-0.259-1.428-0.395-2.387-0.395h-3.201v3.841h-3.053L187.598,14.312L187.598,14.312z M190.65,19.693h9.281
		c0.531,0,0.789-0.284,0.789-0.85v-0.727c0-0.554-0.258-0.837-0.789-0.837h-9.281V19.693z"/>
	<path fill="#FFFFFF" d="M236.729,17.07l3.053-2.819v12.273h-4.16c-1.551,0-2.795-0.799-3.742-2.412
		c-0.025-0.025-0.664-1.526-1.896-4.494c-0.678-1.6-1.477-2.413-2.389-2.413h-0.553v6.512l-3.066,2.807V14.251h3.756
		c1.724,0,3.139,0.8,4.211,2.413c0.417,0.628,1.107,2.131,2.066,4.482c0.666,1.613,1.318,2.413,1.982,2.413h0.738V17.07z"/>
	<polygon fill="#FFFFFF" points="241.568,17.206 241.568,14.251 257.794,14.251 257.794,17.206 251.218,17.206 251.218,26.524 
		248.166,26.524 248.166,17.206 	"/>
	<rect x="259.602" y="14.251" fill="#FFFFFF" width="3.064" height="12.273"/>
	<path fill="#FFFFFF" d="M277.219,14.251h3.053v12.273h-4.148c-1.563,0-2.807-0.799-3.741-2.412
		c-0.038-0.025-0.665-1.526-1.909-4.494c-0.677-1.6-1.465-2.413-2.377-2.413h-0.565v9.319h-3.052V14.251h3.754
		c1.725,0,3.115,0.8,4.211,2.413c0.405,0.628,1.107,2.131,2.055,4.482c0.664,1.613,1.33,2.413,1.982,2.413h0.738L277.219,14.251
		L277.219,14.251z"/>
	<path fill="#FFFFFF" d="M282.069,26.524v-8.776c0-1.219,0.296-2.093,0.874-2.66c0.59-0.554,1.514-0.837,2.783-0.837h12.52v8.778
		c0,2.327-1.207,3.496-3.633,3.496L282.069,26.524L282.069,26.524z M295.192,22.72v-5.514h-9.282c-0.529,0-0.787,0.296-0.787,0.875
		v5.478h9.281C294.936,23.558,295.192,23.288,295.192,22.72z"/>
	<path fill="#FFFFFF" d="M222.166,26.524H205.72v-2.966h12.828L222.166,26.524z M219.273,21.872h-13.629v-2.956h13.629V21.872z
		 M219.273,17.254H205.72v-2.953h16.446L219.273,17.254z"/>
	<polygon fill="#FFFFFF" points="53.829,19.053 63.616,19.053 59.589,22.007 53.829,22.007 	"/>
</g>
</svg>
